Coordinates
version=1
nRows=13
nColumns=40
inDegrees=yes

Units are S.I. units (second, meters, Newtons, ...)
Angles are in degrees.

endheader
time	pelvis_tilt	pelvis_list	pelvis_rotation	pelvis_tx	pelvis_ty	pelvis_tz	hip_flexion_r	hip_adduction_r	hip_rotation_r	knee_angle_r	knee_angle_r_beta	ankle_angle_r	subtalar_angle_r	mtp_angle_r	hip_flexion_l	hip_adduction_l	hip_rotation_l	knee_angle_l	knee_angle_l_beta	ankle_angle_l	subtalar_angle_l	mtp_angle_l	lumbar_extension	lumbar_bending	lumbar_rotation	arm_flex_r	arm_add_r	arm_rot_r	elbow_flex_r	pro_sup_r	wrist_flex_r	wrist_dev_r	arm_flex_l	arm_add_l	arm_rot_l	elbow_flex_l	pro_sup_l	wrist_flex_l	wrist_dev_l
     24.57000000	     -5.14230611	     -5.20508975	      8.02603536	      1.02702880	      0.92897618	      0.48343248	     15.65357039	      3.38511600	    -19.35814541	     15.54594744	     15.54594744	      7.56135177	     -3.71658143	     -4.09947557	     33.09520884	     -9.68466076	      5.14210704	     63.54697368	     63.54697368	      6.59753446	    -16.93367238	      8.33505744	    -10.28016160	      3.56207179	      1.23332712	     15.06609402	    -21.97202155	      3.80826529	     70.91158225	     45.26524457	      0.00000000	      0.00000000	      5.01694530	     -8.74842464	     -3.50945628	     38.64440254	     45.48968261	      0.00000000	      0.00000000
     24.58207143	     -5.30196296	     -5.25623403	      8.02694628	      1.02661949	      0.92942633	      0.48417195	     14.93841503	      3.67263144	    -19.41805048	     14.76070420	     14.76070420	      7.58271516	     -3.34942223	     -4.51704954	     34.43885737	     -9.75582409	      4.65390441	     61.33377249	     61.33377249	      6.96868070	    -17.76354904	      8.88902294	    -10.19823317	      3.59922475	      1.29507375	     17.17407239	    -22.09460110	      3.92926784	     73.80515551	     45.17936950	      0.00000000	      0.00000000	      4.10346710	     -8.49684243	     -3.28238288	     36.31194798	     45.48643561	      0.00000000	      0.00000000
     24.59414286	     -5.40237644	     -5.29171907	      8.02410534	      1.02628432	      0.92993511	      0.48495218	     14.13918939	      3.97426810	    -19.37722193	     13.93838737	     13.93838737	      7.70060492	     -3.00734677	     -4.49063789	     35.48361447	     -9.83764264	      4.09720414	     58.79670742	     58.79670742	      7.33024153	    -18.29646241	      9.49268175	    -10.19620141	      3.59319385	      1.14494317	     19.66939880	    -21.67169186	      3.58208259	     75.92703434	     45.13404607	      0.00000000	      0.00000000	      2.81963432	     -8.39609657	     -3.00571969	     34.88506034	     45.44215324	      0.00000000	      0.00000000
     24.60621429	     -5.50217268	     -5.36208766	      8.00892015	      1.02595943	      0.93031282	      0.48562771	     13.35700802	      4.29185536	    -19.40774087	     13.12906302	     13.12906302	      7.78700877	     -2.53930761	     -4.52831027	     36.35906777	     -9.91834289	      3.55938745	     56.07331724	     56.07331724	      7.82932862	    -18.53106224	     10.41064891	    -10.22296873	      3.64515258	      1.11598386	     22.07062056	    -21.40761787	      3.43614813	     78.13994055	     45.07971866	      0.00000000	      0.00000000	      1.74021410	     -8.22908044	     -2.58176667	     33.16353615	     45.38240269	      0.00000000	      0.00000000
     24.61828571	     -5.55432082	     -5.40709484	      7.99100682	      1.02580500	      0.93066638	      0.48617009	     12.50918582	      4.57873060	    -19.46400033	     12.32764960	     12.32764960	      7.92745726	     -2.02132618	     -4.61157276	     36.98959842	     -9.89384144	      3.10850555	     53.17214685	     53.17214685	      8.27133285	    -18.62393130	     11.49461161	    -10.22371487	      3.70215628	      1.13855531	     24.38596061	    -21.13361269	      3.35769395	     80.29144591	     45.02564923	      0.00000000	      0.00000000	      0.77112970	     -8.05893616	     -2.06886538	     31.42960695	     45.30982235	      0.00000000	      0.00000000
     24.63035714	     -5.66409686	     -5.50990386	      7.94556680	      1.02557195	      0.93078183	      0.48660134	     11.76568311	      4.88776981	    -19.62316236	     11.57249123	     11.57249123	      8.02437861	     -1.36824132	     -4.76277661	     37.59337165	     -9.82995354	      2.80922082	     50.21299238	     50.21299238	      8.68687139	    -18.57518713	     12.68304085	    -10.18811079	      3.81410728	      1.32343656	     26.61986435	    -21.06145421	      3.34305085	     82.38938787	     44.97320974	      0.00000000	      0.00000000	     -0.04040282	     -7.82819549	     -1.31368488	     29.62451189	     45.20464729	      0.00000000	      0.00000000
     24.64242857	     -5.73790339	     -5.54147638	      7.89799907	      1.02548048	      0.93082882	      0.48681003	     11.00247104	      5.10614156	    -19.66804558	     10.89558753	     10.89558753	      8.20881749	     -0.75132558	     -4.89223926	     37.94918086	     -9.59641837	      2.66766306	     47.11203000	     47.11203000	      8.95929862	    -18.43808322	     13.42699188	    -10.16842627	      3.87352582	      1.52572647	     28.81191546	    -20.85434929	      3.24657563	     84.22913347	     44.93083700	      0.00000000	      0.00000000	     -0.98637079	     -7.61713844	     -0.66104931	     28.36228108	     45.10171944	      0.00000000	      0.00000000
     24.65450000	     -5.81932338	     -5.67066733	      7.81136408	      1.02542057	      0.93071144	      0.48694131	     10.26262469	      5.40473522	    -19.87471096	     10.22832634	     10.22832634	      8.34761064	      0.03131558	     -5.04818230	     38.25383294	     -9.42952093	      2.66853076	     44.01055072	     44.01055072	      9.07713785	    -18.10081628	     13.86069394	    -10.12246243	      4.03349178	      1.71284106	     30.96834783	    -20.68404813	      3.25410563	     86.07876615	     44.88639787	      0.00000000	      0.00000000	     -1.94716162	     -7.43632654	      0.20151095	     27.27268646	     44.96057576	      0.00000000	      0.00000000
     24.66657143	     -5.87709212	     -5.80299736	      7.70898021	      1.02546867	      0.93045198	      0.48696083	      9.52618682	      5.68279361	    -20.11962848	      9.64018774	      9.64018774	      8.52916257	      0.93263118	     -5.32310430	     38.36862538	     -9.27150951	      2.72738278	     40.79354058	     40.79354058	      8.65418806	    -17.58954921	     12.74089491	    -10.07238769	      4.21841017	      2.43453742	     32.66596131	    -20.96464337	      3.00533617	     88.24743309	     44.91911018	      0.00000000	      0.00000000	     -3.09053433	     -8.29690556	      8.12150288	     27.39378095	     43.82558869	      0.00000000	      0.00000000
     24.67864286	     -5.91702036	     -5.95692966	      7.55939760	      1.02557474	      0.93012497	      0.48688151	      8.81469642	      5.98374854	    -20.13453867	      9.14495880	      9.14495880	      8.73643327	      1.56191182	     -5.41064481	     38.44751887	     -9.13531946	      2.88864994	     37.77551020	     37.77551020	      8.78739319	    -16.62394735	     12.99146896	    -10.05621929	      4.40316548	      2.62700682	     34.80222518	    -20.63836040	      2.95617890	     89.66339842	     44.88822182	      0.00000000	      0.00000000	     -4.27728943	     -8.05755306	      8.38508157	     27.07099285	     43.78163043	      0.00000000	      0.00000000
     24.69071429	     -5.90602592	     -6.21321016	      7.42875924	      1.02588085	      0.92967384	      0.48669904	      7.96564713	      6.39886519	    -20.44519314	      8.49703254	      8.49703254	      8.98678397	      2.66441289	     -5.50118252	     38.45677517	     -9.15807956	      3.02098113	     34.90990958	     34.90990958	      8.82909845	    -15.31202819	     12.72468597	    -10.05013857	      4.74332433	      2.66059786	     36.99191770	    -20.26158517	      3.34216393	     91.22208083	     44.84381325	      0.00000000	      0.00000000	     -5.68484809	     -7.94196669	      9.02572263	     27.19394362	     43.68218769	      0.00000000	      0.00000000
     24.70278571	     -6.04174184	     -6.58856185	      7.20799860	      1.02607825	      0.92877854	      0.48650953	      7.58253029	      6.85147912	    -20.35878554	      8.40793346	      8.40793346	      9.30356067	      2.93878316	     -5.67173748	     38.63379998	     -9.27023848	      3.30598284	     32.27570475	     32.27570475	      8.93222845	    -14.16301849	     12.98707673	     -9.76289971	      5.16831396	      3.31744237	     38.74618272	    -20.36727587	      3.12513882	     91.90539415	     44.83750699	      0.00000000	      0.00000000	     -6.75204282	     -7.68089726	      9.17001334	     26.98697021	     43.64486868	      0.00000000	      0.00000000
     24.71485714	     -5.79958894	     -6.69188991	      7.03820059	      1.02676630	      0.92857791	      0.48604139	      6.42465005	      7.07821061	    -20.85751930	      7.80221447	      7.80221447	      9.80542675	      4.68694347	     -5.27849582	     38.11433474	     -9.36178680	      2.85030418	     29.53837762	     29.53837762	      8.49188904	    -12.43106887	     11.52156562	    -10.07727213	      5.36273955	      2.82045465	     41.32178229	    -19.66731803	      4.66783210	     93.06772540	     44.79846221	      0.00000000	      0.00000000	     -9.14471872	     -8.33954134	     12.45046229	     29.77277711	     43.17877029	      0.00000000	      0.00000000
